# xmcd
#
# Track frame offsets: 
#        150
#        13400
#        26039
#        41139
#        55828
#        68459
#        79111
#        92192
#        107830
#        123656
#
# Disc length: 1791 seconds
#
# Revision: 0
# Processed by: cddbd v1.5PL3 Copyright (c) Steve Scherf et al.
# Submitted via: ExactAudioCopy v0.90b4
#
DISCID=8606fd0a
DTITLE=Hawg Wylde - Wildest Dreams
DYEAR=1900
DGENRE=Country
TTITLE0=Wildest Dreams
TTITLE1=See Me Smile
TTITLE2=Crazy Love
TTITLE3=More Than Yesterday
TTITLE4=Little Bit Of Lovin'
TTITLE5=Are You Ready
TTITLE6=R&R Choo Choo Train
TTITLE7=One And Only
TTITLE8=Home
TTITLE9=Up To You
EXTD=
EXTT0=
EXTT1=
EXTT2=
EXTT3=
EXTT4=
EXTT5=
EXTT6=
EXTT7=
EXTT8=
EXTT9=
PLAYORDER=
